# xmcd
#
# Track frame offsets:
#	150
#	11465
#	23005
#	36261
#	49001
#	77688
#	103525
#	129559
#	155715
#	181243
#	206114
#	230676
#	254488
#	269038
#	287656
#	301615
#	318115
#	331652
#
# Disc length: 4575 seconds
#
# Revision: 1
# Processed by: cddbd v1.5.2PL0 Copyright (c) Steve Scherf et al.
# Submitted via: audiograbber 1.83.01
#
DISCID=f011dd12
DTITLE=Cher - The Album CD 2
DYEAR=1900
DGENRE=Pop
TTITLE0=Reason To Believe
TTITLE1=The Way Of Love
TTITLE2=Living In A House Devided
TTITLE3=Don´t Hide Your Love
TTITLE4=Prisoner
TTITLE5=Holdin Out For Love
TTITLE6=Holy Smoke
TTITLE7=Shoppin
TTITLE8=Boys And Girls
TTITLE9=Hell On Wheels
TTITLE10=Mirror Image
TTITLE11=Outrageous
TTITLE12=Baby Don´t Go
TTITLE13=Just You
TTITLE14=But You´re Mine
TTITLE15=What Now My Love
TTITLE16=Good Combination
TTITLE17=All I Ever Need Is You
EXTD=
EXTT0=
EXTT1=
EXTT2=
EXTT3=
EXTT4=
EXTT5=
EXTT6=
EXTT7=
EXTT8=
EXTT9=
EXTT10=
EXTT11=
EXTT12=featuring Sonny Bono
EXTT13=
EXTT14=
EXTT15=
EXTT16=
EXTT17=
PLAYORDER=
